<svg xmlns="http://www.w3.org/2000/svg" viewBox="0 0 224.36 65.54"><defs><style>.cls-1{isolation:isolate;}.cls-2,.cls-4{fill:#1a1a81;}.cls-3{fill:#ff4658;}.cls-3,.cls-4{mix-blend-mode:multiply;}</style></defs><g class="cls-1"><g id="Layer_1" data-name="Layer 1"><path class="cls-2" d="M74.49,11.35,61.59,40.88h6.9l2.83-6.65H83.18L86,40.88H93L80.14,11.35Zm6.16,16.81H73.86l3.38-7.89Z"/><polygon class="cls-2" points="16.98 11.55 10.36 11.55 10.36 40.88 31.47 40.88 31.47 34.7 16.98 34.7 16.98 11.55"/><path class="cls-2" d="M106.93,11.55H95.76l0,29.34H106.9c9,0,15.54-6.15,15.55-14.65S115.93,11.56,106.93,11.55Zm8.66,14.67c0,5.08-3.49,8.49-8.68,8.48h-4.55l0-17h4.54C112.11,17.74,115.6,21.15,115.59,26.22Z"/><polygon class="cls-2" points="41.95 29.14 55.76 29.15 55.77 23.04 41.95 23.03 41.95 17.64 57.55 17.66 57.55 11.55 35.34 11.53 35.32 40.87 57.72 40.88 57.73 34.78 41.94 34.77 41.95 29.14"/><path class="cls-2" d="M187.9,21.22c0-6-4.26-9.68-11.12-9.68H163.61l0,29.33h6.62V31.26h4.64l6.84,9.61h7.89L181.84,30A9,9,0,0,0,187.9,21.22Zm-17.68-3.5h6.16c2.2,0,4.82.65,4.82,3.69,0,2.37-1.79,3.79-4.79,3.79h-6.2Z"/><path class="cls-2" d="M204.58,22.75c-5.57-1.33-5.86-2.18-5.86-3.46,0-1.5,1.42-2.46,3.6-2.46a11.55,11.55,0,0,1,7,2.66L210,20l3.61-5.09-.65-.52a16.25,16.25,0,0,0-10.56-3.66c-6,0-10.29,3.74-10.29,8.88,0,5.7,3.61,7.67,9.85,9.13,5.15,1.23,5.54,2.14,5.54,3.39,0,2-2.06,2.66-4,2.66-3,0-5.4-1-8.12-3.37l-.69-.59-4,4.82.64.57a17.92,17.92,0,0,0,12.09,4.63c6.52,0,10.73-3.57,10.73-9.11C214.12,25.89,209.53,24,204.58,22.75Z"/><rect class="cls-3" x="123.33" y="34.76" width="25.67" height="6.24"/><rect class="cls-3" x="129.03" y="23.25" width="25.67" height="6.24"/><rect class="cls-3" x="134.74" y="11.74" width="25.67" height="6.24"/><rect class="cls-4" x="141.44" y="51.09" width="72.26" height="2.69"/><rect class="cls-4" x="10.24" y="51.09" width="72.67" height="2.69"/><path class="cls-2" d="M89.88,47.88h1.76l3.73,8.76h-2l-.8-2H88.9l-.8,2H86.15Zm2,5.12-1.16-2.82L89.58,53Z"/><path class="cls-2" d="M97,48h1.91V54.9h4.33v1.74H97Z"/><path class="cls-2" d="M104.51,52.91V48h1.91v4.92c0,1.41.71,2.14,1.88,2.14s1.87-.7,1.87-2.08V48h1.91v4.9c0,2.64-1.47,3.93-3.81,3.93S104.51,55.47,104.51,52.91Z"/><path class="cls-2" d="M114.28,48h2.06l2.29,3.67L120.92,48H123v8.69h-1.9V51l-2.45,3.72h0L116.16,51v5.64h-1.88Z"/><path class="cls-2" d="M125.31,48h1.77l4.07,5.35V48H133v8.69h-1.63l-4.21-5.53v5.53h-1.89Z"/><path class="cls-2" d="M135.46,48h1.91v8.69h-1.91Z"/></g></g></svg>